<?xml version="1.0" encoding="UTF-8"?>
<svg id="Layer_1" data-name="Layer 1" xmlns="http://www.w3.org/2000/svg" viewBox="0 0 118.42 31.61">
  <defs>
    <style>
      .cls-1 {
        fill: #c8b289;
      }
    </style>
  </defs>
  <path class="cls-1" d="M1.32,31.61c-.49-.19-1.32-.78-1.32-1.78V0h1v29.83c0,.57.66.84.68.85l-.37.93Z"/>
  <g>
    <path class="cls-1" d="M8.63,5.02h-2.1v-1.82h6.19v1.82h-2.1v10.93h-2V5.02Z"/>
    <path class="cls-1" d="M13.7,3.2h2v5.19h2.15V3.2h2v12.75h-2v-5.74h-2.15v5.74h-2V3.2Z"/>
    <path class="cls-1" d="M21.35,3.2h5.47v1.82h-3.46v3.37h2.75v1.82h-2.75v3.92h3.46v1.82h-5.47V3.2Z"/>
    <path class="cls-1" d="M30.72,12.92v-6.7c0-2.04,1.02-3.21,2.99-3.21s2.99,1.17,2.99,3.21v1.09h-1.9v-1.22c0-.91-.4-1.26-1.04-1.26s-1.04.35-1.04,1.26v6.98c0,.91.4,1.24,1.04,1.24s1.04-.33,1.04-1.24v-2.5h-1v-1.82h2.9v4.17c0,2.04-1.02,3.21-2.99,3.21s-2.99-1.17-2.99-3.21Z"/>
    <path class="cls-1" d="M37.85,12.92v-6.7c0-2.04,1.08-3.21,3.04-3.21s3.04,1.17,3.04,3.21v6.7c0,2.04-1.08,3.21-3.04,3.21s-3.04-1.17-3.04-3.21ZM41.93,13.05v-6.96c0-.91-.4-1.26-1.04-1.26s-1.04.35-1.04,1.26v6.96c0,.91.4,1.26,1.04,1.26s1.04-.35,1.04-1.26Z"/>
    <path class="cls-1" d="M45.28,3.2h2v10.93h3.3v1.82h-5.3V3.2Z"/>
    <path class="cls-1" d="M51.54,3.2h3.06c2,0,2.99,1.11,2.99,3.15v6.45c0,2.04-.98,3.15-2.99,3.15h-3.06V3.2ZM54.57,14.13c.64,0,1.02-.33,1.02-1.24v-6.63c0-.91-.38-1.24-1.02-1.24h-1.02v9.11h1.02Z"/>
    <path class="cls-1" d="M58.94,3.2h5.47v1.82h-3.46v3.37h2.75v1.82h-2.75v3.92h3.46v1.82h-5.47V3.2Z"/>
    <path class="cls-1" d="M65.55,3.2h2.51l1.95,7.63h.04V3.2h1.79v12.75h-2.06l-2.4-9.31h-.04v9.31h-1.79V3.2Z"/>
    <path class="cls-1" d="M77.81,5.02h-2.1v-1.82h6.19v1.82h-2.1v10.93h-2V5.02Z"/>
    <path class="cls-1" d="M82.87,3.2h2v5.19h2.15V3.2h2v12.75h-2v-5.74h-2.15v5.74h-2V3.2Z"/>
    <path class="cls-1" d="M90.52,3.2h2.97c2.08,0,2.97.97,2.97,2.93v.78c0,1.31-.42,2.15-1.31,2.51v.04c1,.31,1.33,1.26,1.33,2.7v2.24c0,.62.02,1.08.22,1.55h-2.04c-.11-.33-.18-.53-.18-1.57v-2.33c0-1.18-.35-1.57-1.26-1.57h-.69v5.47h-2V3.2ZM93.25,8.66c.75,0,1.2-.33,1.2-1.35v-.98c0-.91-.31-1.31-1.02-1.31h-.91v3.64h.73Z"/>
    <path class="cls-1" d="M97.86,3.2h5.47v1.82h-3.46v3.37h2.75v1.82h-2.75v3.92h3.46v1.82h-5.47V3.2Z"/>
    <path class="cls-1" d="M106.02,3.2h2.71l2.08,12.75h-2l-.36-2.53v.04h-2.28l-.36,2.5h-1.86l2.08-12.75ZM108.21,11.72l-.89-6.3h-.04l-.87,6.3h1.8Z"/>
    <path class="cls-1" d="M111.77,3.2h3.06c2,0,2.99,1.11,2.99,3.15v6.45c0,2.04-.98,3.15-2.99,3.15h-3.06V3.2ZM114.8,14.13c.64,0,1.02-.33,1.02-1.24v-6.63c0-.91-.38-1.24-1.02-1.24h-1.02v9.11h1.02Z"/>
  </g>
  <g>
    <path class="cls-1" d="M7.09,20.87h3.46v.48h-2.94v2.02h2.75v.48h-2.75v2.21h3.06v.48h-3.59v-5.66Z"/>
    <path class="cls-1" d="M13.57,20.87h.54l2.38,5.66h-.59l-.62-1.5h-3l-.64,1.5h-.55l2.47-5.66ZM13.81,21.45l-1.32,3.1h2.6l-1.28-3.1Z"/>
    <path class="cls-1" d="M17.46,25.49c.14.24.32.42.54.54.22.12.47.18.76.18.18,0,.34-.03.5-.08.15-.05.29-.13.4-.22.11-.1.21-.21.27-.35.07-.14.1-.29.1-.46,0-.2-.04-.36-.12-.49-.08-.13-.19-.23-.33-.32s-.29-.15-.47-.21-.35-.12-.54-.18c-.18-.06-.36-.12-.54-.2s-.33-.17-.47-.29c-.14-.12-.25-.27-.33-.45-.08-.18-.12-.41-.12-.67,0-.25.05-.47.15-.67.1-.19.23-.36.4-.49.17-.13.36-.23.58-.3.22-.07.45-.1.69-.1.31,0,.6.05.86.16s.49.29.68.55l-.46.33c-.13-.19-.29-.33-.47-.42-.18-.09-.39-.14-.64-.14-.17,0-.33.02-.49.07-.15.04-.29.11-.4.2s-.21.2-.28.33-.1.29-.1.47c0,.28.07.5.22.65s.32.27.54.36c.22.09.45.17.7.23.25.07.49.16.7.27.22.11.4.27.54.47.14.2.22.48.22.83,0,.26-.05.48-.14.68-.1.2-.23.36-.39.5-.16.14-.35.24-.56.31-.21.07-.44.1-.66.1-.37,0-.72-.07-1.03-.2-.31-.13-.58-.35-.81-.66l.5-.34Z"/>
    <path class="cls-1" d="M23.01,21.35h-1.94v-.48h4.4v.48h-1.94v5.18h-.53v-5.18Z"/>
    <path class="cls-1" d="M28.43,20.87h1.63c.21,0,.43.02.65.05.22.03.41.11.59.22s.31.26.42.46.16.45.16.77c0,.29-.09.54-.26.75-.17.21-.42.35-.76.42v.02c.19.02.36.06.51.13.15.07.29.17.4.29.11.12.2.26.26.43.06.17.09.35.09.54,0,.33-.06.59-.19.8-.13.21-.28.37-.47.48-.19.12-.39.2-.62.24-.22.04-.43.06-.62.06h-1.81v-5.66ZM28.96,23.32h1.1c.27,0,.49-.03.66-.1s.3-.15.4-.24c.1-.1.16-.2.19-.31.03-.11.05-.21.05-.3,0-.2-.03-.36-.1-.49-.07-.13-.16-.23-.27-.31-.11-.08-.24-.13-.39-.16-.15-.03-.31-.05-.47-.05h-1.17v1.97ZM28.96,26.06h1.21c.31,0,.56-.04.75-.11.19-.07.33-.17.44-.28.1-.11.17-.23.2-.36.03-.12.05-.24.05-.34,0-.21-.04-.39-.12-.54s-.18-.27-.31-.36-.27-.16-.44-.2c-.16-.04-.33-.06-.49-.06h-1.29v2.26Z"/>
    <path class="cls-1" d="M33.1,23.7c0-.43.07-.83.22-1.19s.34-.68.6-.94c.26-.26.56-.47.92-.62s.76-.22,1.19-.22.83.07,1.19.22.67.36.92.62c.26.26.46.58.6.94s.22.76.22,1.19-.07.83-.22,1.2c-.14.37-.34.68-.6.94-.26.26-.56.47-.92.62-.36.15-.76.22-1.19.22s-.83-.07-1.19-.22c-.36-.15-.67-.35-.92-.62-.26-.26-.46-.58-.6-.94-.14-.37-.22-.76-.22-1.2ZM33.63,23.7c0,.35.06.68.17.98.11.3.27.57.48.79.21.22.46.4.76.53.3.13.63.19,1,.19s.7-.06,1-.19.55-.3.76-.53c.21-.22.37-.49.48-.79.11-.3.17-.63.17-.98s-.06-.68-.17-.98c-.11-.3-.27-.57-.48-.79s-.46-.4-.76-.53c-.3-.13-.63-.19-1-.19s-.7.06-1,.19c-.3.13-.55.3-.76.53s-.37.49-.48.79c-.11.3-.17.63-.17.98Z"/>
    <path class="cls-1" d="M40.29,25.49c.14.24.32.42.54.54.22.12.47.18.76.18.18,0,.34-.03.5-.08.15-.05.29-.13.4-.22.11-.1.21-.21.27-.35.07-.14.1-.29.1-.46,0-.2-.04-.36-.12-.49-.08-.13-.19-.23-.33-.32s-.29-.15-.47-.21-.35-.12-.54-.18c-.18-.06-.36-.12-.54-.2s-.33-.17-.47-.29c-.14-.12-.25-.27-.33-.45-.08-.18-.12-.41-.12-.67,0-.25.05-.47.15-.67.1-.19.23-.36.4-.49.17-.13.36-.23.58-.3.22-.07.45-.1.69-.1.31,0,.6.05.86.16s.49.29.68.55l-.46.33c-.13-.19-.29-.33-.47-.42-.18-.09-.39-.14-.64-.14-.17,0-.33.02-.49.07-.15.04-.29.11-.4.2s-.21.2-.28.33-.1.29-.1.47c0,.28.07.5.22.65s.32.27.54.36c.22.09.45.17.7.23.25.07.49.16.7.27.22.11.4.27.54.47.14.2.22.48.22.83,0,.26-.05.48-.14.68-.1.2-.23.36-.39.5-.16.14-.35.24-.56.31-.21.07-.44.1-.66.1-.37,0-.72-.07-1.03-.2-.31-.13-.58-.35-.81-.66l.5-.34Z"/>
    <path class="cls-1" d="M45.85,21.35h-1.94v-.48h4.4v.48h-1.94v5.18h-.53v-5.18Z"/>
    <path class="cls-1" d="M48.81,23.7c0-.43.07-.83.22-1.19s.34-.68.6-.94c.26-.26.56-.47.92-.62s.76-.22,1.19-.22.83.07,1.19.22.67.36.92.62c.26.26.46.58.6.94s.22.76.22,1.19-.07.83-.22,1.2c-.14.37-.34.68-.6.94-.26.26-.56.47-.92.62-.36.15-.76.22-1.19.22s-.83-.07-1.19-.22c-.36-.15-.67-.35-.92-.62-.26-.26-.46-.58-.6-.94-.14-.37-.22-.76-.22-1.2ZM49.34,23.7c0,.35.06.68.17.98.11.3.27.57.48.79.21.22.46.4.76.53.3.13.63.19,1,.19s.7-.06,1-.19.55-.3.76-.53c.21-.22.37-.49.48-.79.11-.3.17-.63.17-.98s-.06-.68-.17-.98c-.11-.3-.27-.57-.48-.79s-.46-.4-.76-.53c-.3-.13-.63-.19-1-.19s-.7.06-1,.19c-.3.13-.55.3-.76.53s-.37.49-.48.79c-.11.3-.17.63-.17.98Z"/>
    <path class="cls-1" d="M55.85,20.87h.68l3.45,4.96h.02v-4.96h.53v5.66h-.68l-3.45-4.96h-.02v4.96h-.53v-5.66Z"/>
    <path class="cls-1" d="M62.3,20.87h.58l-.62,1.82h-.47l.5-1.82Z"/>
    <path class="cls-1" d="M64.31,25.49c.14.24.32.42.54.54.22.12.47.18.76.18.18,0,.34-.03.5-.08.15-.05.29-.13.4-.22.11-.1.21-.21.27-.35.07-.14.1-.29.1-.46,0-.2-.04-.36-.12-.49-.08-.13-.19-.23-.33-.32s-.29-.15-.47-.21-.35-.12-.54-.18c-.18-.06-.36-.12-.54-.2s-.33-.17-.47-.29c-.14-.12-.25-.27-.33-.45-.08-.18-.12-.41-.12-.67,0-.25.05-.47.15-.67.1-.19.23-.36.4-.49.17-.13.36-.23.58-.3.22-.07.45-.1.69-.1.31,0,.6.05.86.16s.49.29.68.55l-.46.33c-.13-.19-.29-.33-.47-.42-.18-.09-.39-.14-.64-.14-.17,0-.33.02-.49.07-.15.04-.29.11-.4.2s-.21.2-.28.33-.1.29-.1.47c0,.28.07.5.22.65s.32.27.54.36c.22.09.45.17.7.23.25.07.49.16.7.27.22.11.4.27.54.47.14.2.22.48.22.83,0,.26-.05.48-.14.68-.1.2-.23.36-.39.5-.16.14-.35.24-.56.31-.21.07-.44.1-.66.1-.37,0-.72-.07-1.03-.2-.31-.13-.58-.35-.81-.66l.5-.34Z"/>
    <path class="cls-1" d="M70.84,25.49c.14.24.32.42.54.54.22.12.47.18.76.18.18,0,.34-.03.5-.08.15-.05.29-.13.4-.22.11-.1.21-.21.27-.35.07-.14.1-.29.1-.46,0-.2-.04-.36-.12-.49-.08-.13-.19-.23-.33-.32s-.29-.15-.47-.21-.35-.12-.54-.18c-.18-.06-.36-.12-.54-.2s-.33-.17-.47-.29c-.14-.12-.25-.27-.33-.45-.08-.18-.12-.41-.12-.67,0-.25.05-.47.15-.67.1-.19.23-.36.4-.49.17-.13.36-.23.58-.3.22-.07.45-.1.69-.1.31,0,.6.05.86.16s.49.29.68.55l-.46.33c-.13-.19-.29-.33-.47-.42-.18-.09-.39-.14-.64-.14-.17,0-.33.02-.49.07-.15.04-.29.11-.4.2s-.21.2-.28.33-.1.29-.1.47c0,.28.07.5.22.65s.32.27.54.36c.22.09.45.17.7.23.25.07.49.16.7.27.22.11.4.27.54.47.14.2.22.48.22.83,0,.26-.05.48-.14.68-.1.2-.23.36-.39.5-.16.14-.35.24-.56.31-.21.07-.44.1-.66.1-.37,0-.72-.07-1.03-.2-.31-.13-.58-.35-.81-.66l.5-.34Z"/>
    <path class="cls-1" d="M76.39,21.35h-1.94v-.48h4.4v.48h-1.94v5.18h-.53v-5.18Z"/>
    <path class="cls-1" d="M79.36,23.7c0-.43.07-.83.22-1.19s.34-.68.6-.94c.26-.26.56-.47.92-.62s.76-.22,1.19-.22.83.07,1.19.22.67.36.92.62c.26.26.46.58.6.94s.22.76.22,1.19-.07.83-.22,1.2c-.14.37-.34.68-.6.94-.26.26-.56.47-.92.62-.36.15-.76.22-1.19.22s-.83-.07-1.19-.22c-.36-.15-.67-.35-.92-.62-.26-.26-.46-.58-.6-.94-.14-.37-.22-.76-.22-1.2ZM79.88,23.7c0,.35.06.68.17.98.11.3.27.57.48.79.21.22.46.4.76.53.3.13.63.19,1,.19s.7-.06,1-.19.55-.3.76-.53c.21-.22.37-.49.48-.79.11-.3.17-.63.17-.98s-.06-.68-.17-.98c-.11-.3-.27-.57-.48-.79s-.46-.4-.76-.53c-.3-.13-.63-.19-1-.19s-.7.06-1,.19c-.3.13-.55.3-.76.53s-.37.49-.48.79c-.11.3-.17.63-.17.98Z"/>
    <path class="cls-1" d="M86.4,20.87h1.49c.07,0,.18,0,.3,0s.27.02.42.05.3.07.46.13.29.14.42.26c.12.11.22.25.3.42.08.17.12.38.12.62,0,.27-.05.5-.14.67-.09.18-.21.32-.35.43-.14.11-.3.19-.47.24-.17.05-.33.09-.49.11l1.65,2.72h-.6l-1.59-2.69h-.98v2.69h-.53v-5.66ZM86.92,23.37h1.12c.28,0,.5-.03.68-.1s.31-.15.4-.26c.1-.1.16-.21.2-.33.03-.12.05-.22.05-.32s-.02-.2-.05-.32c-.04-.12-.1-.23-.2-.33-.1-.1-.23-.19-.4-.26s-.4-.1-.68-.1h-1.12v2.02Z"/>
    <path class="cls-1" d="M92.29,24.1l-2.08-3.22h.63l1.71,2.69,1.75-2.69h.59l-2.08,3.22v2.44h-.53v-2.44Z"/>
    <path class="cls-1" d="M98.96,21.35h-1.94v-.48h4.4v.48h-1.94v5.18h-.53v-5.18Z"/>
    <path class="cls-1" d="M102.3,20.87h1.49c.07,0,.18,0,.3,0s.27.02.42.05.3.07.46.13.29.14.42.26c.12.11.22.25.3.42.08.17.12.38.12.62,0,.27-.05.5-.14.67-.09.18-.21.32-.35.43-.14.11-.3.19-.47.24-.17.05-.33.09-.49.11l1.65,2.72h-.6l-1.59-2.69h-.98v2.69h-.53v-5.66ZM102.83,23.37h1.12c.28,0,.5-.03.68-.1s.31-.15.4-.26c.1-.1.16-.21.2-.33.03-.12.05-.22.05-.32s-.02-.2-.05-.32c-.04-.12-.1-.23-.2-.33-.1-.1-.23-.19-.4-.26s-.4-.1-.68-.1h-1.12v2.02Z"/>
    <path class="cls-1" d="M108.78,20.87h.54l2.38,5.66h-.59l-.62-1.5h-3l-.64,1.5h-.55l2.47-5.66ZM109.03,21.45l-1.32,3.1h2.6l-1.28-3.1Z"/>
    <path class="cls-1" d="M112.52,20.87h.53v5.66h-.53v-5.66Z"/>
    <path class="cls-1" d="M114.6,20.87h.53v5.18h2.64v.48h-3.17v-5.66Z"/>
  </g>
</svg>